HIERARCHY
ROOT Hips
{
  OFFSET 267.745 86.9975 -272.335
  CHANNELS 6 Xposition Yposition Zposition Zrotation Xrotation Yrotation
  JOINT LeftUpLeg
  {
    OFFSET 8.64259 1.95398 -2.38835
    CHANNELS 3 Zrotation Xrotation Yrotation
    JOINT LeftLeg
    {
      OFFSET 43.7702 0 0
      CHANNELS 3 Zrotation Xrotation Yrotation
      JOINT LeftFoot
      {
        OFFSET 40.6238 0 0
        CHANNELS 3 Zrotation Xrotation Yrotation
        JOINT LeftToeBase
        {
          OFFSET 12.7242 0 0
          CHANNELS 3 Zrotation Xrotation Yrotation
          End Site
          {
            OFFSET 0 0 0
          }
        }
      }
    }
  }
  JOINT RightUpLeg
  {
    OFFSET -8.2249 1.95398 -2.59336
    CHANNELS 3 Zrotation Xrotation Yrotation
    JOINT RightLeg
    {
      OFFSET 43.5653 0 0
      CHANNELS 3 Zrotation Xrotation Yrotation
      JOINT RightFoot
      {
        OFFSET 40.6238 0 0
        CHANNELS 3 Zrotation Xrotation Yrotation
        JOINT RightToeBase
        {
          OFFSET 12.7242 0 0
          CHANNELS 3 Zrotation Xrotation Yrotation
          End Site
          {
            OFFSET 0 0 0
          }
        }
      }
    }
  }
  JOINT Spine
  {
    OFFSET 0.165834 0.87714 6.61349
    CHANNELS 3 Zrotation Xrotation Yrotation
    JOINT Spine1
    {
      OFFSET 7.38963 1.71661e-005 0
      CHANNELS 3 Zrotation Xrotation Yrotation
      JOINT Spine2
      {
        OFFSET 11.9445 1.14441e-005 0
        CHANNELS 3 Zrotation Xrotation Yrotation
        JOINT Spine3
        {
          OFFSET 14.7254 4.19617e-005 0
          CHANNELS 3 Zrotation Xrotation Yrotation
          JOINT Spine4
          {
            OFFSET 10.9679 0 0
            CHANNELS 3 Zrotation Xrotation Yrotation
            JOINT RightShoulder
            {
              OFFSET 2.46616 -1.6653 3.69651
              CHANNELS 3 Zrotation Xrotation Yrotation
              JOINT RightArm
              {
                OFFSET 13.0012 0 0
                CHANNELS 3 Zrotation Xrotation Yrotation
                JOINT RightForeArm
                {
                  OFFSET 28.7848 1.52588e-005 0
                  CHANNELS 3 Zrotation Xrotation Yrotation
                  JOINT RightHand
                  {
                    OFFSET 26.5688 1.52588e-005 0
                    CHANNELS 3 Zrotation Xrotation Yrotation
                    End Site
                    {
                      OFFSET 0 0 0
                    }
                  }
                }
              }
            }
            JOINT LeftShoulder
            {
              OFFSET 2.38034 -1.29275 -3.7523
              CHANNELS 3 Zrotation Xrotation Yrotation
              JOINT LeftArm
              {
                OFFSET 16.3182 6.10352e-005 0
                CHANNELS 3 Zrotation Xrotation Yrotation
                JOINT LeftForeArm
                {
                  OFFSET 27.0901 0 0
                  CHANNELS 3 Zrotation Xrotation Yrotation
                  JOINT LeftHand
                  {
                    OFFSET 24.5451 1.52588e-005 0
                    CHANNELS 3 Zrotation Xrotation Yrotation
                    End Site
                    {
                      OFFSET 0 0 0
                    }
                  }
                }
              }
            }
            JOINT Neck
            {
              OFFSET 5.0226 -0.0266342 0
              CHANNELS 3 Zrotation Xrotation Yrotation
              JOINT Head
              {
                OFFSET 6.69364 2.86102e-005 0
                CHANNELS 3 Zrotation Xrotation Yrotation
                End Site
                {
                  OFFSET 0 0 0
                }
              }
            }
          }
        }
      }
    }
  }
}
MOTION
Frames:	14
Frame Time:	0.0416667
-120.795 84.1416 -117.45 -167.49 68.2376 -27.193 177.968 22.9155 90.1129 -49.1158 14.0036 4.44997 49.994 -4.10682 6.1621 57.1878 -1.54677 12.2254 178.366 26.1353 87.9039 -72.3278 -22.6188 -2.79144 58.5619 3.79519 7.07276 29.3225 -1.01003 9.91061 -0.242593 9.1716 -90.5626 8.52647 -0.732778 -1.06597 -3.14458 -0.778985 -1.03271 -25.6777 -0.37854 -1.2369 -5.66507 -0.378542 -1.2369 100.948 -48.2549 -84.1071 12.7318 2.8194 -2.5996 1.77823 -24.0755 -4.67783 -10.6397 -0.460799 -0.107029 -82.2859 -52.2845 90.2964 -0.848353 2.49075 -9.53935 17.7 10.4261 -51.9304 12.918 -0.174013 -5.03 -1.83873 -3.44119 -3.10962 -12.4241 -3.12393 2.28031 
-129.965 85.3546 -126.362 123.143 68.7934 44.5485 178.424 20.3129 99.6342 -23.5257 16.4762 5.44464 36.0982 -10.9054 -12.0316 57.2859 -1.26993 14.2983 -175.98 27.4459 83.1038 -75.0148 -21.9456 -5.70023 75.7219 -1.12181 20.0088 11.2834 2.55262 7.47126 0.931088 9.04241 -90.797 8.79777 1.50334 -1.67727 -2.87347 1.42809 -1.7418 -25.4109 1.93789 -1.14791 -5.39827 1.93789 -1.14791 98.9177 -44.178 -87.6236 11.7498 -5.10986 -19.9887 -1.599 -15.907 -18.7814 -11.4732 -0.273696 -2.49904 -81.082 -53.548 92.1492 -1.78287 3.49432 0.927624 10.6987 16.158 -37.5756 6.46455 -0.216415 -5.99904 -5.8196 -11.6738 1.80641 -5.00183 -11.6813 -14.7583 
-139.64 83.9376 -135.009 90.9961 46.07 78.6182 -178.496 15.0405 107.819 -18.345 24.3388 7.41819 39.0566 -9.0414 -11.623 57.3717 -1.03106 15.0768 -178.202 39.482 76.5596 -76.6288 -22.3537 -3.82439 79.6051 -1.92857 23.0915 21.1042 1.64709 2.92139 2.07871 9.32425 -91.0264 8.26141 3.69737 -2.25282 -3.40638 3.59467 -2.41347 -25.9805 4.20331 -1.03597 -5.96791 4.2033 -1.03598 97.575 -39.3607 -90.3901 6.05856 -14.3741 -45.0276 -6.20522 -16.075 -29.8187 -11.6946 -0.0814247 -4.66686 -81.8115 -52.828 91.0295 -14.0964 -4.0236 8.9719 3.12675 13.4617 -20.7281 9.64454 -0.328672 -6.73294 -3.99251 -18.8615 1.16537 -1.84622 -19.2667 -27.0616 
-150.383 81.3656 -141.419 85.1446 36.0338 84.9587 -179.524 25.0678 106.259 -40.8719 19.7763 7.60466 61.4362 3.05918 -0.446991 68.0088 0.12343 19.8491 164.598 54.1334 79.3806 -77.3318 -13.542 1.82525 70.7241 -2.37798 11.6549 43.5633 -3.26516 9.77374 1.49183 10.1525 -91.1257 6.58688 2.50063 -2.30564 -5.08404 2.39676 -2.41342 -27.6294 3.07777 -1.44738 -7.61673 3.07777 -1.44737 96.9034 -38.492 -91.7045 9.7393 -18.5789 -62.2684 -10.8198 -9.52028 -44.0681 -10.5277 0.134157 -6.88457 -84.7656 -48.7144 86.1993 -28.065 -10.3946 -4.15849 1.64721 19.0863 -3.11318 8.74258 -0.205925 -5.9369 -0.735264 -21.2876 -8.12319 2.40111 -21.239 -24.5194 
-157.505 80.6918 -144.777 77.6252 36.4418 86.3125 179.503 36.4807 99.6476 -47.6853 20.9459 4.15065 63.7458 7.89417 9.94792 65.6247 -0.11484 19.2533 149.746 64.0249 86.6816 -77.3141 -9.44444 4.88892 68.1446 -2.44022 6.98302 42.9424 -3.11556 8.94827 0.721603 10.9455 -90.8032 4.98716 1.1113 -1.59664 -6.68436 1.03995 -1.644 -29.2184 1.53974 -1.18888 -9.2058 1.53974 -1.18889 97.1075 -41.229 -91.0048 6.92855 -24.7894 -67.6262 -18.3142 -9.03291 -53.1312 -10.9523 0.093863 -6.31858 -90.1581 -47.086 77.5905 -25.1475 -10.9236 -33.1046 3.09562 29.5379 0.218499 6.27551 -0.382637 -8.11629 4.68779 -22.12 -13.0158 4.37457 -20.9357 -21.1719 
-160.642 80.3268 -146.415 74.3606 33.5759 86.3007 -177.643 41.1377 96.5132 -50.4938 21.51 1.94707 63.9825 8.73586 12.8936 66.3387 -0.525974 17.1492 139.829 66.4056 97.3735 -81.6938 -10.259 4.58875 64.7879 -2.35591 2.24195 56.7012 -5.7783 6.84816 0.566423 11.7876 -90.4582 3.30137 0.949661 -0.890732 -8.36954 0.909538 -0.931657 -30.9063 1.17344 -0.564121 -10.8937 1.17344 -0.564129 97.4138 -46.2536 -89.9363 9.10305 -26.5129 -66.8212 -9.09065 -11.4554 -40.3576 -13.8085 -0.427149 -1.63417 -91.5046 -41.5794 74.0238 -26.8764 -11.8311 -62.2218 8.31371 30.8916 0.0145473 12.6127 -0.403104 -6.74618 2.5523 -21.0847 -16.8221 12.0554 -20.3451 -17.1813 
-160.748 79.8596 -147.874 72.7036 33.9373 85.1753 -175.06 42.5956 93.6189 -51.5192 23.2401 0.323932 65.4191 9.75019 13.492 65.5648 -0.886367 15.5651 133.344 67.1409 101.257 -87.2564 -12.4408 3.60131 63.9015 -3.11498 -0.37635 63.2475 -6.79447 7.86428 0.102244 12.1643 -90.4049 2.54439 0.046059 -0.789371 -9.12685 0.0112681 -0.790647 -31.66 0.281144 -0.739046 -11.6473 0.281157 -0.73905 97.0663 -50.1628 -90.1058 15.5963 -27.9198 -56.6238 -1.85562 -7.6996 -37.0179 -27.6089 -2.84062 6.96366 -91.0249 -39.1067 74.1059 -21.3454 -1.68834 -78.0689 4.33993 29.7117 -5.49375 7.3524 -0.461428 -8.71787 3.68455 -20.4489 -15.5713 14.1164 -20.0717 -17.4881 
-157.718 80.3794 -148.323 71.4171 32.3136 82.6563 -171.358 38.6714 91.4749 -46.5618 22.4751 -1.65444 66.5723 9.68974 11.2009 65.03 -1.14634 14.4613 133.796 67.3064 99.2725 -87.0832 -14.2787 3.79986 64.0435 -2.47331 1.62213 63.4834 -7.08321 6.82362 -0.670513 12.0485 -90.0903 2.77538 -1.37439 -0.194171 -8.89484 -1.38162 -0.133499 -31.4348 -1.25248 -0.598322 -11.4221 -1.25248 -0.59831 98.1068 -52.641 -88.2995 19.5955 -34.525 -46.2834 0.478208 -0.810918 -44.0236 -25.1821 -2.72553 7.49658 -90.8754 -36.0154 73.4522 -17.3675 8.22912 -81.0441 17.0651 28.0103 -37.8839 4.53003 -0.435627 -9.79857 7.73083 -19.6708 -13.4087 12.3432 -18.951 -17.6263 
-149.792 81.7035 -147.303 69.701 22.7752 79.617 -172.799 26.6235 94.2707 -34.9223 18.0174 -0.150348 63.5967 4.56515 3.1192 70.4996 0.249879 19.383 140.21 60.2871 95.9244 -77.8337 -20.3975 7.03845 61.18 -1.50299 -1.50925 67.296 -6.29936 12.3542 -0.840307 11.3003 -89.8648 4.27457 -1.6241 0.276792 -7.3954 -1.61037 0.348014 -29.9387 -1.6322 -0.224255 -9.92608 -1.6322 -0.224265 97.4407 -53.9001 -89.1947 17.7454 -42.418 -39.2842 25.0301 18.2869 -57.3602 -40.3653 -5.6739 10.251 -91.0776 -40.2026 74.3374 -15.9435 15.1433 -71.627 23.7741 29.2195 -47.6124 8.66584 -0.331339 -6.93774 12.3023 -17.7997 -5.01263 6.6373 -17.7885 -18.7942 
-138.849 82.1349 -143.281 69.3513 9.91158 76.2348 -175.973 23.8508 96.1176 -46.9418 13.7083 2.61659 47.8352 -5.35357 0.977612 64.4031 -0.551831 17.4148 155.404 48.4156 90.1541 -72.5574 -17.2303 6.56768 67.2817 -2.39191 5.64136 60.7851 -4.72385 15.9717 -0.514133 10.5985 -89.7646 5.67842 -0.928792 0.486278 -5.9923 -0.906514 0.526691 -28.53 -1.03199 0.184639 -8.51731 -1.03202 0.184638 97.4229 -54.7301 -89.1528 19.6574 -37.6448 -34.7941 59.3052 30.8111 -75.382 -31.0428 -3.38385 7.2099 -89.9207 -49.5468 78.4916 -21.9505 6.17289 -45.9607 14.61 37.342 -27.3715 16.2672 -0.182386 -4.92956 13.3527 -15.6137 -3.38723 6.3113 -15.4307 -12.6008 
-127.402 81.7427 -138.938 71.1158 -3.11322 74.0992 -177.171 36.7159 90.0212 -81.6744 15.7375 2.45968 56.9347 3.21052 13 62.4054 -1.47321 12.7804 167.704 32.75 88.8682 -66.2259 -17.4256 3.56245 68.8513 -3.14551 4.60317 64.8302 -5.03254 16.3857 0.427097 10.5147 -89.7282 5.84049 0.967046 0.505017 -5.83018 0.98835 0.461947 -28.3665 0.770564 0.772293 -8.35389 0.770572 0.772298 98.3144 -50.7487 -88.1109 27.7008 -15.5068 -37.9989 41.4803 17.5475 -71.1956 -40.2194 -3.44865 4.24178 -87.8357 -53.0207 82.2493 -17.0248 -7.4473 -16.29 3.27593 36.0521 -7.0117 12.3178 0.0196754 -3.58426 15.3997 -14.1132 1.38848 3.65592 -14.8837 -12.7996 
-114.368 83.6186 -131.52 69.4155 -7.26416 67.4278 -165.576 55.7473 72.4669 -78.13 14.742 -0.882221 63.0483 6.93219 12.2265 65.1751 -1.71025 11.8597 173.68 13.3816 81.0755 -44.3341 -15.846 0.153972 67.4826 -0.823981 8.0223 56.6336 -4.86507 16.6195 1.00688 10.0938 -89.2768 6.68525 2.31992 1.33887 -4.98405 2.37658 1.23543 -27.5264 1.81028 1.97422 -7.51375 1.8103 1.97422 100.445 -44.4932 -85.049 28.5045 4.40388 -41.0814 4.12365 -1.97925 -80.1086 -35.2116 -2.16786 2.00531 -88.4555 -47.3125 80.2399 -15.1431 -4.94661 10.4071 1.35251 31.3554 -8.14581 13.7228 0.0529299 -3.40855 13.8481 -15.9225 5.95195 3.83252 -17.9897 -15.6109 
-99.089 85.2617 -121.55 71.4896 -9.26249 66.5256 -160.13 55.4646 71.5933 -55.6409 17.6001 -6.83901 56.5936 -1.39213 3.76432 68.7286 -2.1056 10.0748 176.116 -1.3573 89.6811 -31.3728 -18.927 -1.4345 34.8096 16.0748 23.4269 8.49507 6.08209 1.69629 0.98008 10.1791 -88.8961 6.48748 2.42666 2.08482 -5.18269 2.51605 1.97598 -27.7147 1.68813 2.71751 -7.7021 1.68815 2.71752 99.5737 -47.7397 -86.3109 20.3495 -0.339858 -28.9184 0.407613 0.412555 -75.3869 -18.4889 -0.738536 -1.53304 -88.864 -48.1091 79.7927 -12.5077 -1.7899 -0.221039 -3.24124 25.9584 -4.27204 10.5052 -0.222661 -5.55458 16.658 -15.4631 5.4972 0.231346 -17.0628 -16.1223 
-83.1026 83.173 -110.088 78.7278 -11.6366 67.7404 -169.388 36.3265 82.3454 -54.3037 20.2856 -4.25019 66.7828 8.29911 11.6545 61.5315 -2.12332 8.97252 174.111 12.7503 92.0196 -85.9114 -23.0428 -1.8347 37.7241 15.699 14.7883 2.37053 7.65755 -2.39888 0.12135 10.4746 -88.5963 5.90648 0.831551 2.73616 -5.76702 0.951113 2.69694 -28.2791 -0.0288687 2.85949 -8.26641 -0.0288424 2.85948 99.0167 -55.3201 -86.7758 23.2775 -15.6448 -13.9498 -5.79808 -5.77831 -42.4116 -14.6912 -0.298935 -2.89097 -88.204 -51.7276 81.4786 -5.10071 -3.99768 -29.631 -2.03703 26.0227 -7.05 11.4411 -0.312437 -6.20173 16.0903 -13.4402 0.387821 -2.23388 -13.3206 -11.5667 
